<svg width="70" height="52" viewBox="0 0 70 52" fill="none" xmlns="http://www.w3.org/2000/svg">
<path d="M0 26.0256V0.0511794L19.5287 0.0157194C45.6736 -0.0197406 55.1711 -0.00201056 56.5584 0.139829C58.3014 0.299399 61.0759 1.06179 62.4099 1.73553C64.722 2.88797 66.4116 5.12194 67.3009 8.15376C67.9768 10.5296 68.1724 12.3026 68.0835 15.5294C67.9946 18.1535 67.9412 18.5435 67.4432 20.086C66.8385 21.8945 65.7358 23.7207 64.6864 24.6426L64.0639 25.1745L65.2912 26.0965C68.0479 28.1532 69.4352 30.9013 69.8976 35.2452C70.1466 37.5678 69.9332 40.6705 69.3463 43.2237C68.0657 48.7022 64.224 51.3263 56.6473 51.8227C55.26 51.9114 42.0809 52 27.0876 52H0V26.0256ZM51.2761 38.0288C53.4993 36.9295 53.6771 33.8445 51.614 32.4084L50.8314 31.8765L33.8639 31.8233L16.8964 31.7878V35.1565V38.5252L33.6683 38.4898L50.4223 38.4366L51.2761 38.0288ZM51.4717 18.6145C52.7523 17.8875 53.3036 16.7173 52.8945 15.5649C52.5922 14.6429 51.7918 13.8983 50.9381 13.7032C50.5468 13.5969 42.899 13.5259 33.5793 13.5259H16.8964V16.2741V19.0222H33.8461H50.7781L51.4717 18.6145Z" fill="black"/>
</svg>
