<svg width="22" height="18" viewBox="0 0 22 18" fill="none" xmlns="http://www.w3.org/2000/svg">
<path d="M3.57152 16.8539C3.77646 17.5288 4.41806 18 5.13259 18H16.8669C17.5815 18 18.224 17.5288 18.428 16.8539L21.9489 5.25137C22.0588 4.8866 21.9896 4.50273 21.7588 4.198C21.5289 3.89327 21.1744 3.71862 20.7885 3.71862H16.4229C15.5847 1.4909 13.4152 0 11.0002 0C8.51783 0 6.39455 1.55003 5.57755 3.71862H1.21099C0.825106 3.71862 0.471534 3.89327 0.240743 4.198C0.0108751 4.50364 -0.0592853 4.8866 0.0514943 5.25227L3.57152 16.8539ZM11.0002 0.727714C13.0146 0.727714 14.8314 1.91662 15.628 3.71953H6.37332C7.15062 1.96028 8.93233 0.727714 11.0002 0.727714ZM0.833414 4.63372C0.922961 4.51546 1.06051 4.44633 1.21099 4.44633H5.35784C5.26552 4.84839 5.21752 5.26683 5.21752 5.69527C5.21752 5.8963 5.38369 6.05913 5.58678 6.05913C5.78988 6.05913 5.95605 5.8963 5.95605 5.69527C5.95605 5.2641 6.01236 4.84566 6.1176 4.44633H15.8819C15.989 4.85112 16.0425 5.26956 16.0425 5.69527C16.0425 5.8963 16.2087 6.05913 16.4118 6.05913C16.6149 6.05913 16.7811 5.8963 16.7811 5.69527C16.7811 5.27138 16.734 4.85294 16.6417 4.44633H20.7876C20.9381 4.44633 21.0766 4.51455 21.1661 4.63281C21.2556 4.75197 21.2824 4.90115 21.24 5.04306L17.7199 16.6446C17.6073 17.0139 17.2565 17.2714 16.8651 17.2714H5.13259C4.74117 17.2714 4.39036 17.013 4.27774 16.6446L0.759561 5.04397C0.716172 4.90206 0.742944 4.75197 0.833414 4.63372Z" fill="#02E90B"/>
<path d="M4.39033 8H16.6097C16.8253 8 17 7.77625 17 7.5C17 7.22375 16.8244 7 16.6097 7H4.39033C4.17467 7 4 7.22375 4 7.5C4 7.77625 4.17467 8 4.39033 8Z" fill="#02E90B"/>
<path d="M16.6163 11H6.38371C6.17171 11 6 11.2237 6 11.5C6 11.7762 6.17267 12 6.38371 12H16.6163C16.8283 12 17 11.7762 17 11.5C17 11.2237 16.8283 11 16.6163 11Z" fill="#02E90B"/>
<path d="M15.6508 14H7.34924C7.15629 14 7 14.2237 7 14.5C7 14.7763 7.15716 15 7.34924 15H15.6508C15.8437 15 16 14.7763 16 14.5C16 14.2237 15.8428 14 15.6508 14Z" fill="#02E90B"/>
</svg>
