<svg width="70" height="52" viewBox="0 0 70 52" fill="none" xmlns="http://www.w3.org/2000/svg">
<path d="M0 26V0H13.3232H26.6641L27.0204 0.390443C27.2163 0.62116 29.0509 3.15904 31.0814 6.03413C33.1298 8.90922 36.0509 13.0266 37.5827 15.1741C39.1145 17.3215 41.5725 20.7645 43.0153 22.8055C48.5013 30.5079 51.1196 34.1993 52.0458 35.4594L52.9898 36.755L53.0789 18.4218L53.1679 0.0887372H61.5394H69.9109L69.9644 26.0532L70 52L56.5165 51.9645L43.0331 51.9113L39.916 47.5454C38.1883 45.1317 35.374 41.1918 33.6641 38.7782C31.9542 36.3645 30.3511 34.1283 30.1018 33.8089C29.8524 33.4894 28.1781 31.129 26.3613 28.5734C24.5445 26.0177 22.8702 23.6573 22.6209 23.3379C22.3715 23.0184 20.9822 21.0485 19.5038 18.9898L16.8321 15.2451L16.7786 33.6137L16.743 52H8.3715H0V26Z" fill="black"/>
</svg>
