<svg width="20" height="20" viewBox="0 0 20 20" fill="none" xmlns="http://www.w3.org/2000/svg">
<path d="M3.91925 0C1.76397 0 0 1.76393 0 3.91925V16.0814C0 18.2367 1.76393 20 3.91925 20H16.0814C18.2367 20 20 18.2367 20 16.0814V3.91925C20 1.76397 18.2367 0 16.0814 0H3.91925ZM4.905 3.3004C5.93842 3.3004 6.57495 3.97882 6.5946 4.87059C6.5946 5.74267 5.93838 6.44015 4.88502 6.44015H4.86563C3.85188 6.44015 3.19666 5.74271 3.19666 4.87059C3.19666 3.97884 3.87171 3.3004 4.90498 3.3004H4.905ZM13.8105 7.46842C15.7979 7.46842 17.2878 8.76743 17.2878 11.5589V16.7702H14.2674V11.9083C14.2674 10.6866 13.8303 9.85307 12.7372 9.85307C11.9028 9.85307 11.4054 10.4149 11.187 10.9576C11.1073 11.1518 11.0877 11.4229 11.0877 11.6946V16.7702H8.06729C8.06729 16.7702 8.10692 8.53433 8.06729 7.68156H11.0883V8.9686C11.4897 8.34933 12.2076 7.4684 13.8105 7.4684V7.46842ZM3.37481 7.68222H6.3952V16.7702H3.37481V7.68222Z" fill="white"/>
</svg>
