<svg width="154" height="20" viewBox="0 0 154 20" fill="none" xmlns="http://www.w3.org/2000/svg">
<g clip-path="url(#clip0_684_15693)">
<path d="M2.55277 20V10.6154H0V7.23652H2.55277V4.3505C2.55277 2.08264 4.0607 0 7.53529 0C8.9421 0 9.98237 0.1311 9.98237 0.1311L9.9004 3.28642C9.9004 3.28642 8.83949 3.27638 7.68178 3.27638C6.42879 3.27638 6.22804 3.83768 6.22804 4.7693V7.23652H10L9.83588 10.6154H6.22804V20H2.55277Z" fill="white"/>
</g>
<g clip-path="url(#clip1_684_15693)">
<path d="M45 1.80184C47.6701 1.80184 47.9864 1.812 49.0408 1.86011C50.0158 1.90461 50.5453 2.06752 50.8977 2.20443C51.3644 2.38583 51.6976 2.60257 52.0475 2.95248C52.3974 3.30239 52.6142 3.63555 52.7955 4.10229C52.9325 4.4547 53.0954 4.98419 53.1399 5.95914C53.188 7.01364 53.1982 7.32989 53.1982 10C53.1982 12.6701 53.188 12.9864 53.1399 14.0409C53.0954 15.0158 52.9325 15.5453 52.7955 15.8978C52.6142 16.3645 52.3974 16.6976 52.0475 17.0476C51.6976 17.3975 51.3644 17.6142 50.8977 17.7956C50.5453 17.9325 50.0158 18.0954 49.0408 18.1399C47.9865 18.188 47.6703 18.1982 45 18.1982C42.3297 18.1982 42.0134 18.188 40.9591 18.1399C39.9842 18.0954 39.4547 17.9325 39.1023 17.7956C38.6355 17.6142 38.3024 17.3975 37.9524 17.0476C37.6025 16.6976 37.3858 16.3645 37.2044 15.8978C37.0675 15.5453 36.9046 15.0158 36.8601 14.0409C36.812 12.9864 36.8018 12.6701 36.8018 10C36.8018 7.32989 36.812 7.01364 36.8601 5.95918C36.9046 4.98419 37.0675 4.4547 37.2044 4.10229C37.3858 3.63555 37.6025 3.30239 37.9524 2.95248C38.3024 2.60257 38.6355 2.38583 39.1023 2.20443C39.4547 2.06752 39.9842 1.90461 40.9591 1.86011C42.0136 1.812 42.3299 1.80184 45 1.80184ZM45 0C42.2841 0 41.9436 0.0115116 40.877 0.0601777C39.8126 0.108764 39.0857 0.277786 38.4496 0.525007C37.792 0.780564 37.2343 1.1225 36.6784 1.67843C36.1225 2.23436 35.7805 2.79203 35.525 3.44962C35.2777 4.08573 35.1087 4.81263 35.0601 5.87705C35.0115 6.94362 35 7.28416 35 10C35 12.7159 35.0115 13.0564 35.0601 14.123C35.1087 15.1874 35.2777 15.9143 35.525 16.5504C35.7805 17.208 36.1225 17.7657 36.6784 18.3216C37.2343 18.8775 37.792 19.2195 38.4496 19.475C39.0857 19.7223 39.8126 19.8913 40.877 19.9399C41.9436 19.9885 42.2841 20 45 20C47.7158 20 48.0564 19.9885 49.1229 19.9399C50.1874 19.8913 50.9143 19.7223 51.5504 19.475C52.208 19.2195 52.7656 18.8775 53.3216 18.3216C53.8775 17.7657 54.2194 17.208 54.475 16.5504C54.7222 15.9143 54.8912 15.1874 54.9398 14.123C54.9885 13.0564 55 12.7159 55 10C55 7.28416 54.9885 6.94362 54.9398 5.87705C54.8912 4.81263 54.7222 4.08573 54.475 3.44962C54.2194 2.79203 53.8775 2.23436 53.3216 1.67843C52.7656 1.1225 52.208 0.780564 51.5504 0.525007C50.9143 0.277786 50.1874 0.108764 49.1229 0.0601777C48.0564 0.0115116 47.7158 0 45 0ZM45 4.86487C42.1639 4.86487 39.8648 7.16397 39.8648 10C39.8648 12.8361 42.1639 15.1352 45 15.1352C47.836 15.1352 50.1351 12.8361 50.1351 10C50.1351 7.16397 47.836 4.86487 45 4.86487ZM45 13.3334C43.159 13.3334 41.6666 11.841 41.6666 10C41.6666 8.15908 43.159 6.66667 45 6.66667C46.8409 6.66667 48.3333 8.15908 48.3333 10C48.3333 11.841 46.8409 13.3334 45 13.3334ZM51.538 4.66199C51.538 5.32474 51.0008 5.86201 50.338 5.86201C49.6753 5.86201 49.138 5.32474 49.138 4.66199C49.138 3.99924 49.6753 3.462 50.338 3.462C51.0008 3.462 51.538 3.99924 51.538 4.66199Z" fill="white"/>
</g>
<path d="M107.415 3.12932C107.093 1.89755 106.144 0.927448 104.939 0.598229C102.756 0 94 0 94 0C94 0 85.2442 0 83.0606 0.598229C81.8559 0.9275 80.9071 1.89755 80.5851 3.12932C80 5.36198 80 10.0202 80 10.0202C80 10.0202 80 14.6784 80.5851 16.9111C80.9071 18.1429 81.8559 19.0726 83.0606 19.4018C85.2442 20 94 20 94 20C94 20 102.756 20 104.939 19.4018C106.144 19.0726 107.093 18.1429 107.415 16.9111C108 14.6784 108 10.0202 108 10.0202C108 10.0202 108 5.36198 107.415 3.12932ZM91.1363 14.2495V5.79088L98.4545 10.0203L91.1363 14.2495Z" fill="white"/>
<path d="M136.919 0C134.764 0 133 1.76393 133 3.91925V16.0814C133 18.2367 134.764 20 136.919 20H149.081C151.237 20 153 18.2367 153 16.0814V3.91925C153 1.76397 151.237 0 149.081 0H136.919ZM137.905 3.3004C138.938 3.3004 139.575 3.97882 139.595 4.87059C139.595 5.74267 138.938 6.44015 137.885 6.44015H137.866C136.852 6.44015 136.197 5.74271 136.197 4.87059C136.197 3.97884 136.872 3.3004 137.905 3.3004H137.905ZM146.81 7.46842C148.798 7.46842 150.288 8.76743 150.288 11.5589V16.7702H147.267V11.9083C147.267 10.6866 146.83 9.85307 145.737 9.85307C144.903 9.85307 144.405 10.4149 144.187 10.9576C144.107 11.1518 144.088 11.4229 144.088 11.6946V16.7702H141.067C141.067 16.7702 141.107 8.53433 141.067 7.68156H144.088V8.9686C144.49 8.34933 145.208 7.4684 146.81 7.4684V7.46842ZM136.375 7.68222H139.395V16.7702H136.375V7.68222Z" fill="white"/>
<defs>
<clipPath id="clip0_684_15693">
<rect width="10" height="20" fill="white"/>
</clipPath>
<clipPath id="clip1_684_15693">
<rect width="20" height="20" fill="white" transform="translate(35)"/>
</clipPath>
</defs>
</svg>
